<svg xmlns="http://www.w3.org/2000/svg" xmlns:xlink="http://www.w3.org/1999/xlink" viewBox="0 0 27.68488 42.00818"><defs><style>.cls-1{fill:url(#Namnlös_övertoning_9);}</style><linearGradient id="Namnlös_övertoning_9" x1="49.99927" y1="63.5" x2="77.68414" y2="63.5" gradientUnits="userSpaceOnUse"><stop offset="0" stop-color="#f64f59"/><stop offset="0.5" stop-color="#c471ed"/><stop offset="1" stop-color="#12c2e9"/></linearGradient></defs><title>flare-icon</title><g id="Lager_1" data-name="Lager 1"><path class="cls-1" d="M73.86212,57.192a50.38463,50.38463,0,0,0-3.55139-6.883c-.186-.23675-.37207-.5412-.74408-.575-.21985.11841-.4397.186-.47357.49042A26.04379,26.04379,0,0,1,67.385,57.44568c-2.82422-2.875-5.47931-6.96759-6.89984-14.40863-.11841-.27057-.20294-.49042-.5412-.54114a1.46828,1.46828,0,0,0-.86249.558c-1.4375,2.84112-2.87494,6.17272-4.44775,10.06237C52.3,59.3905,50.01691,66.78082,50,70.67047v.03381c-.08453,5.76685,7.15356,13.71528,13.85052,13.79981,6.68006-.08453,13.83362-6.29108,13.83362-13.79981C77.68414,66.86536,75.77313,61.52136,73.86212,57.192ZM53.1286,65.56317a5.42763,5.42763,0,0,0-1.64038,1.11615,106.39737,106.39737,0,0,1,4.0249-13.2417,69.87181,69.87181,0,0,1,4.19409-9.53808c1.53894,7.3565,4.34626,11.55053,7.2381,14.44244a11.50862,11.50862,0,0,1-1.67419,2.50287,10.78625,10.78625,0,0,1-6.07123,3.28088C57.05212,64.61615,54.87054,64.78528,53.1286,65.56317ZM65.56586,78h-.01038c-.98144,0-1.94989-.01172-2.93005-.039a5.90179,5.90179,0,0,1-2.1839-.56677,5.47247,5.47247,0,0,1-3.389-4.69153q-.03516-.24957-.04681-.50177a6.24381,6.24381,0,1,1,11.55133,3.28753.76682.76682,0,0,0,.08447.27692c.41858.72925.8736,1.43646,1.35846,2.22162C68.496,77.987,67.02441,78.00256,65.56586,78Z" transform="translate(-49.99927 -42.49591)"/></g></svg>