<?xml version="1.0" standalone="no"?>
<!DOCTYPE svg PUBLIC "-//W3C//DTD SVG 20010904//EN"
 "http://www.w3.org/TR/2001/REC-SVG-20010904/DTD/svg10.dtd">
<svg version="1.0" xmlns="http://www.w3.org/2000/svg"
 width="1344.000000pt" height="1344.000000pt" viewBox="0 0 1344.000000 1344.000000"
 preserveAspectRatio="xMidYMid meet">
<metadata>
Created by potrace 1.14, written by Peter Selinger 2001-2017
</metadata>
<g transform="translate(0.000000,1344.000000) scale(0.100000,-0.100000)"
fill="#000000" stroke="none">
<path d="M5397 13416 c-70 -29 -156 -94 -190 -144 -14 -20 -81 -152 -150 -292
-119 -246 -144 -297 -220 -460 -19 -41 -54 -115 -77 -165 -39 -83 -61 -133
-65 -145 -1 -3 -18 -40 -38 -83 -20 -43 -37 -80 -37 -83 0 -2 -18 -43 -40 -90
-22 -47 -40 -87 -40 -89 0 -2 -15 -36 -34 -77 -18 -40 -46 -102 -61 -138 -14
-36 -35 -82 -46 -102 -10 -21 -16 -38 -13 -38 3 0 -2 -12 -10 -27 -17 -33 -66
-140 -66 -146 0 -3 -12 -31 -27 -63 -15 -33 -27 -61 -28 -64 -1 -5 -87 -213
-111 -265 -7 -16 -36 -86 -65 -155 -28 -69 -56 -136 -62 -150 -6 -14 -11 -27
-12 -30 -1 -3 -7 -18 -13 -33 -7 -16 -12 -30 -12 -32 0 -3 -11 -28 -24 -57
-21 -46 -34 -78 -41 -98 -1 -3 -6 -16 -12 -30 -22 -50 -36 -85 -39 -95 -2 -5
-22 -55 -44 -110 -23 -55 -53 -131 -67 -170 -13 -38 -31 -84 -39 -102 -8 -17
-14 -33 -14 -36 0 -3 -5 -18 -12 -34 -6 -15 -12 -32 -14 -38 -2 -11 -40 -114
-57 -155 -6 -14 -11 -30 -13 -37 -1 -6 -16 -49 -32 -95 -34 -92 -75 -207 -122
-343 -17 -49 -34 -97 -37 -105 -3 -8 -7 -19 -9 -25 -4 -17 -134 -399 -141
-415 -3 -8 -7 -17 -8 -20 -2 -11 -27 -86 -32 -100 -3 -8 -7 -19 -8 -25 -2 -5
-15 -48 -31 -95 -15 -47 -28 -87 -29 -90 -3 -20 -59 -177 -66 -186 -5 -6 -7
-13 -4 -16 3 -2 -7 -38 -21 -79 -14 -41 -27 -81 -29 -89 -8 -31 -53 -176 -65
-205 -6 -16 -12 -32 -12 -35 -1 -10 -6 -26 -27 -97 -12 -40 -24 -81 -26 -90
-4 -18 -17 -60 -70 -238 -14 -49 -28 -97 -30 -105 -2 -8 -11 -40 -20 -70 -8
-30 -17 -62 -19 -70 -2 -8 -16 -58 -31 -110 -15 -52 -28 -102 -30 -110 -2 -8
-15 -60 -30 -115 -15 -55 -28 -104 -29 -110 -1 -5 -5 -19 -9 -30 -3 -11 -9
-31 -11 -45 -3 -14 -17 -72 -32 -130 -14 -58 -27 -112 -29 -120 -3 -14 -21
-85 -30 -120 -2 -8 -4 -15 -5 -15 -1 0 -3 -14 -6 -32 -2 -18 -8 -52 -14 -75
-17 -68 -19 -79 -43 -193 -9 -38 -18 -83 -21 -100 -2 -16 -7 -41 -10 -55 -10
-42 -37 -183 -42 -215 -2 -16 -7 -46 -9 -65 -3 -19 -10 -62 -16 -95 -17 -101
-18 -108 -24 -163 -4 -29 -8 -62 -10 -72 -3 -18 -14 -113 -20 -175 -2 -16 -7
-66 -11 -110 -17 -166 -9 -603 12 -710 3 -11 7 -36 10 -55 19 -131 66 -311
140 -538 53 -162 236 -562 324 -707 17 -27 33 -57 37 -65 4 -8 9 -17 12 -20 3
-3 15 -23 26 -45 11 -22 22 -42 25 -45 10 -10 80 -120 80 -126 0 -3 6 -12 13
-19 23 -27 33 -40 35 -48 1 -4 19 -31 39 -60 21 -28 51 -71 67 -94 16 -24 33
-43 37 -43 5 0 9 -6 9 -12 0 -7 11 -26 25 -43 13 -16 54 -68 91 -115 38 -47
71 -87 74 -90 3 -3 13 -14 21 -26 15 -23 106 -127 204 -234 79 -87 315 -320
399 -395 37 -33 86 -77 108 -98 22 -20 42 -37 45 -37 2 0 32 -24 66 -52 34
-29 66 -56 72 -60 5 -4 26 -21 46 -37 20 -17 39 -28 43 -24 3 3 6 1 6 -4 0
-12 147 -121 280 -209 41 -27 77 -52 78 -56 2 -5 8 -8 13 -8 7 0 52 -26 164
-98 11 -6 31 -18 45 -24 14 -7 27 -15 30 -18 19 -22 449 -230 474 -230 9 0 16
-4 16 -8 0 -4 17 -14 38 -21 41 -14 77 -28 104 -42 10 -5 27 -9 37 -9 11 0 23
-4 26 -10 3 -5 17 -10 30 -10 13 0 26 -4 29 -9 3 -5 16 -11 28 -14 13 -3 70
-19 128 -36 96 -29 299 -78 360 -87 44 -6 94 -14 125 -18 200 -31 611 -25 815
10 14 3 43 7 65 10 22 3 74 12 115 20 41 8 86 17 100 20 14 3 43 10 65 16 22
5 48 12 58 14 10 2 27 6 37 9 10 3 29 8 42 10 30 6 212 62 259 80 20 8 39 11
43 8 3 -4 6 -1 6 5 0 7 3 11 8 10 4 -2 21 2 37 9 56 21 70 26 80 28 6 2 31 11
55 22 25 11 77 33 115 48 118 49 516 252 523 268 2 4 7 7 12 7 12 0 110 61
134 82 11 10 25 18 31 18 7 0 22 9 35 20 13 11 27 20 31 20 4 0 14 6 21 13 7
7 43 32 81 57 37 24 67 47 67 52 0 4 5 8 10 8 6 0 16 4 23 10 10 8 79 62 112
88 6 4 28 21 50 37 22 17 42 33 45 36 3 4 25 23 50 44 102 83 193 168 340 316
138 139 187 191 260 279 11 14 28 34 38 45 10 11 33 40 52 65 19 25 37 47 40
50 18 17 130 174 200 280 45 69 90 136 100 150 9 14 20 35 24 48 4 12 11 22
16 22 4 0 10 8 13 18 3 9 24 49 46 87 48 84 89 167 89 179 0 5 4 12 9 15 8 6
83 156 83 167 0 3 9 26 21 51 11 25 22 55 25 66 2 11 9 24 16 29 7 4 10 8 6 8
-4 0 1 20 12 45 11 25 16 45 12 45 -4 0 -2 4 3 8 8 6 79 205 76 214 0 2 6 26
15 53 9 28 25 86 36 130 26 104 28 116 33 140 2 11 5 29 8 40 5 21 19 100 22
125 1 8 5 26 8 40 4 14 9 48 12 75 3 28 7 64 9 80 21 158 28 602 12 770 -4 44
-9 103 -11 130 -2 28 -4 50 -5 50 -1 0 -3 11 -4 25 -6 53 -17 138 -27 200 -6
36 -13 81 -15 100 -10 67 -13 85 -14 85 -2 0 -8 31 -15 75 -5 33 -27 143 -40
200 -3 14 -8 36 -11 50 -6 33 -29 131 -60 255 -14 55 -27 107 -29 115 -2 8
-13 51 -25 95 -12 44 -24 89 -27 100 -3 11 -17 58 -30 104 -14 47 -26 89 -28
95 -1 6 -5 18 -8 26 -4 8 -9 26 -11 40 -3 14 -5 26 -7 28 -1 1 -2 5 -3 10 -1
4 -4 12 -8 18 -4 6 -9 21 -12 35 -7 37 -75 252 -86 271 -6 10 -10 22 -10 28 0
11 -89 270 -111 325 -7 17 -13 36 -15 42 -1 7 -14 46 -29 85 -27 75 -46 125
-133 353 -56 147 -60 158 -58 165 0 3 -7 18 -17 33 -9 15 -15 27 -11 27 3 0 0
10 -8 23 -8 12 -22 45 -32 72 -10 28 -29 74 -42 103 -13 29 -24 58 -24 65 0 7
-4 17 -9 23 -5 5 -20 38 -34 74 -34 85 -75 180 -87 202 -6 10 -10 22 -10 28 0
5 -13 38 -30 72 -16 34 -30 67 -30 75 0 7 -5 13 -10 13 -6 0 -9 3 -8 8 1 8 -6
29 -32 87 -10 22 -50 112 -88 200 -39 88 -83 187 -98 220 -15 33 -28 62 -29
65 0 3 -26 58 -58 123 -31 65 -57 123 -57 128 0 5 -4 9 -10 9 -5 0 -10 6 -10
13 0 8 -18 48 -40 90 -22 42 -36 77 -32 77 4 0 3 4 -3 8 -5 4 -41 68 -79 142
-68 135 -122 236 -179 340 -17 30 -39 71 -49 90 -10 19 -22 42 -28 50 -22 37
-110 192 -110 196 0 2 -25 44 -55 94 -30 50 -55 95 -55 100 0 4 -4 10 -8 12
-4 2 -25 32 -45 68 -104 180 -162 258 -234 309 -18 12 -33 19 -33 15 0 -3 -7
-1 -15 6 -8 7 -15 9 -15 5 0 -4 -6 -2 -14 4 -10 8 -25 5 -62 -15 -55 -29 -106
-73 -98 -85 2 -4 0 -10 -5 -14 -5 -3 -9 -13 -9 -23 0 -16 -8 -104 -17 -167
-11 -82 -18 -153 -19 -177 -1 -16 -3 -28 -6 -28 -3 0 -6 -12 -6 -27 -2 -49
-19 -166 -39 -268 -13 -68 -24 -130 -30 -170 -1 -11 -3 -20 -4 -20 -1 0 -4
-13 -6 -30 -3 -16 -12 -61 -20 -100 -16 -69 -21 -93 -29 -137 -3 -13 -17 -70
-31 -128 -15 -58 -29 -114 -31 -125 -3 -11 -7 -27 -9 -35 -2 -8 -4 -15 -5 -15
-1 0 -3 -7 -5 -15 -2 -8 -13 -49 -25 -90 -12 -41 -27 -97 -35 -125 -18 -68
-117 -363 -149 -450 -15 -38 -27 -72 -28 -75 -1 -9 -11 -35 -34 -88 l-23 -53
-63 67 c-35 37 -76 81 -93 98 -27 29 -151 167 -200 225 -11 13 -25 29 -30 35
-6 6 -29 34 -51 61 -21 28 -45 57 -52 65 -11 13 -84 107 -130 168 -9 12 -22
28 -27 35 -6 6 -22 28 -35 47 -13 19 -27 37 -30 40 -24 22 -330 494 -330 511
0 5 -3 9 -7 9 -5 0 -13 10 -19 23 -23 49 -59 112 -66 115 -5 2 -8 7 -8 12 0 4
-21 45 -47 91 -46 84 -233 453 -233 462 0 2 -17 40 -37 83 -20 43 -38 81 -38
84 -1 3 -9 23 -19 45 -10 22 -36 85 -58 140 -22 55 -47 114 -55 132 -8 17 -16
37 -17 45 -1 7 -10 30 -19 52 -9 21 -17 44 -17 51 0 6 -3 15 -7 19 -5 4 -8 11
-9 14 0 4 -6 20 -12 35 -7 16 -12 34 -12 42 0 8 -4 17 -10 20 -5 3 -10 16 -10
29 0 12 -4 26 -8 32 -4 5 -16 34 -26 64 -10 30 -20 62 -24 70 -3 8 -6 18 -7
23 -2 4 -3 8 -5 10 -1 1 -3 10 -6 20 -7 27 -11 41 -17 57 -3 8 -16 49 -28 90
-13 41 -23 77 -24 80 -1 3 -5 12 -8 20 -4 8 -14 42 -23 75 -20 78 -30 111 -44
159 -6 21 -14 48 -16 60 -7 31 -9 39 -17 61 -3 11 -9 31 -11 45 -3 14 -17 68
-31 120 -14 52 -27 104 -29 115 -2 11 -11 49 -20 85 -9 36 -19 76 -21 90 -10
45 -27 124 -37 170 -6 25 -11 54 -13 65 -2 11 -4 20 -5 20 -1 0 -3 9 -5 20 -1
11 -6 34 -9 50 -4 17 -8 39 -10 50 -11 67 -21 104 -40 143 -36 75 -40 82 -52
82 -7 0 -14 6 -17 14 -5 13 -65 36 -92 36 -5 0 -36 -11 -68 -24z m23 -531 c32
-145 51 -228 56 -247 2 -10 6 -26 8 -35 3 -10 12 -47 21 -83 8 -36 18 -73 20
-83 2 -10 7 -27 10 -37 3 -10 8 -27 10 -37 30 -148 242 -846 275 -905 6 -10
10 -25 10 -33 0 -8 4 -23 9 -33 6 -9 29 -69 52 -132 37 -102 108 -281 144
-365 75 -174 109 -252 116 -261 5 -6 6 -14 2 -17 -3 -4 -1 -7 5 -7 7 0 12 -6
12 -13 0 -20 233 -479 298 -587 12 -19 30 -51 40 -70 31 -60 127 -215 135
-218 4 -2 7 -8 7 -14 0 -9 223 -349 250 -380 37 -44 110 -149 110 -158 0 -6 5
-8 10 -5 6 3 10 1 10 -5 0 -6 19 -35 43 -64 23 -29 56 -70 72 -92 120 -154
355 -417 522 -586 l47 -47 -41 -79 c-41 -79 -191 -333 -202 -342 -10 -9 -51
-69 -51 -75 0 -4 -6 -12 -12 -19 -7 -7 -22 -25 -33 -40 -47 -65 -157 -201
-166 -204 -5 -2 -9 -8 -9 -13 0 -9 -148 -159 -231 -234 -283 -256 -614 -469
-956 -613 -106 -44 -147 -62 -163 -67 -3 -1 -12 -4 -20 -8 -76 -29 -133 -46
-141 -42 -5 4 -9 2 -9 -3 0 -5 -6 -9 -12 -10 -7 0 -44 -10 -83 -22 -38 -12
-81 -23 -95 -26 -14 -3 -43 -10 -65 -16 -45 -11 -57 -14 -111 -22 -22 -4 -57
-11 -79 -17 -22 -6 -49 -13 -60 -14 -32 -5 -78 -15 -105 -22 -14 -3 -32 -7
-40 -8 -8 -1 -33 -5 -55 -10 -22 -4 -50 -9 -62 -10 -11 -2 -31 -6 -43 -10 -12
-4 -33 -9 -46 -11 -13 -2 -34 -5 -47 -8 -12 -2 -42 -7 -67 -10 -25 -4 -52 -9
-61 -12 -9 -2 -32 -7 -50 -9 -19 -3 -45 -7 -59 -10 -14 -3 -38 -7 -55 -10 -16
-3 -41 -8 -55 -10 -55 -11 -151 -29 -217 -40 -13 -2 -26 -6 -30 -8 -5 -3 -29
-8 -55 -11 -26 -4 -53 -9 -60 -11 -7 -2 -25 -7 -40 -10 -16 -3 -40 -7 -55 -10
-16 -3 -35 -8 -43 -11 -8 -4 -26 -8 -40 -10 -14 -2 -95 -24 -180 -49 -85 -25
-166 -48 -180 -51 -13 -3 -29 -9 -35 -14 -7 -5 -20 -11 -31 -13 -10 -2 -28 -8
-39 -12 -99 -40 -141 -58 -150 -66 -5 -5 -17 -9 -26 -9 -10 0 -24 -6 -31 -14
-8 -7 -25 -17 -38 -21 -14 -4 -36 -16 -49 -26 -13 -11 -28 -19 -33 -19 -5 0
-14 -4 -21 -10 -7 -5 -55 -40 -107 -77 -52 -37 -102 -74 -110 -82 -9 -9 -33
-32 -54 -51 -43 -40 -42 -47 -11 84 9 38 18 77 20 85 2 9 22 90 45 181 22 90
42 173 45 185 2 11 4 20 5 20 1 0 3 7 5 15 2 8 6 24 9 35 2 11 21 83 41 160
20 77 38 147 40 155 2 8 8 28 14 43 6 15 10 31 10 35 -1 4 0 9 1 12 1 3 3 12
5 20 6 34 37 146 45 165 7 17 14 44 35 135 1 3 9 30 19 61 9 31 19 65 21 75 2
11 16 60 31 109 14 50 28 97 29 105 2 8 36 121 75 250 39 129 73 242 76 250
25 94 219 694 294 913 16 48 30 94 30 102 0 8 5 15 12 15 6 0 9 3 6 6 -4 3 0
21 8 40 8 19 15 37 15 41 2 11 8 30 16 51 3 9 7 19 8 22 1 3 4 12 8 20 3 8 11
33 17 55 7 22 18 54 25 70 7 17 27 71 44 120 16 50 41 118 55 153 13 34 22 62
19 62 -3 0 0 7 7 15 7 8 9 15 5 15 -4 0 -3 6 2 13 5 6 17 35 27 62 10 28 20
57 23 65 3 8 7 20 9 25 5 18 95 259 104 280 5 11 16 40 24 65 8 25 25 74 39
110 14 36 42 110 62 165 21 55 44 114 51 132 8 17 14 33 14 36 0 2 7 21 15 41
8 20 15 38 15 41 0 3 7 19 16 36 8 17 17 38 19 47 5 21 129 322 150 365 8 16
15 34 15 39 0 5 10 30 22 56 12 26 22 49 23 52 0 3 13 31 28 64 15 32 27 64
27 70 0 7 4 16 9 21 11 13 133 292 131 301 -1 4 2 10 7 13 11 7 63 124 63 140
0 6 5 11 10 11 6 0 10 5 10 11 0 14 24 66 147 319 161 333 168 345 176 348 4
2 7 8 7 14 0 11 67 144 139 278 22 41 48 92 57 113 9 21 18 37 19 35 2 -2 13
-48 25 -103z m1285 -6959 c99 -10 131 -14 190 -26 33 -6 65 -13 70 -14 6 -2
28 -6 50 -11 22 -4 45 -10 50 -14 6 -3 19 -7 30 -8 11 -2 27 -6 35 -10 8 -3
18 -7 23 -8 4 -2 9 -4 12 -5 8 -4 17 -7 53 -15 17 -4 32 -11 32 -16 0 -5 8 -9
18 -9 22 0 199 -85 286 -138 37 -23 70 -42 72 -42 2 0 12 -6 21 -14 10 -8 47
-37 83 -63 178 -132 355 -321 477 -510 60 -94 143 -250 143 -270 0 -7 5 -13
10 -13 6 0 9 -3 8 -7 0 -5 3 -17 7 -28 23 -57 47 -122 50 -135 2 -8 8 -28 15
-45 11 -29 39 -139 46 -180 1 -11 5 -31 9 -45 5 -24 8 -46 22 -155 15 -112 7
-399 -13 -521 -4 -22 -8 -48 -10 -59 -1 -11 -3 -20 -4 -20 -1 0 -3 -7 -5 -15
-7 -32 -15 -71 -20 -93 -13 -62 -76 -243 -101 -289 -8 -16 -12 -28 -7 -28 4 0
3 -4 -2 -8 -6 -4 -19 -27 -30 -52 -10 -25 -29 -61 -42 -80 -13 -19 -23 -40
-23 -46 0 -6 -7 -17 -16 -24 -21 -18 -13 -67 21 -127 15 -26 39 -68 52 -93 14
-25 30 -51 36 -58 15 -19 47 -75 53 -94 4 -10 10 -18 15 -18 5 0 9 -7 9 -15 0
-8 5 -15 10 -15 6 0 10 -5 10 -11 0 -6 12 -29 28 -52 44 -69 52 -81 62 -104 5
-13 13 -23 18 -23 4 0 13 -12 19 -27 7 -16 18 -37 25 -48 7 -11 30 -45 50 -77
21 -31 35 -59 30 -61 -4 -2 -217 -3 -474 -3 -258 1 -468 -3 -468 -7 0 -4 -8
-3 -18 2 -10 6 -24 6 -32 1 -8 -5 -19 -6 -24 -2 -16 9 -79 9 -93 -2 -8 -5 -13
-5 -13 0 0 5 -13 9 -30 9 -16 1 -30 -3 -30 -7 0 -5 -8 -4 -18 1 -10 5 -24 6
-32 1 -7 -4 -22 -5 -34 -1 -11 5 -35 5 -53 1 -18 -5 -35 -5 -37 -1 -3 4 -20 6
-38 4 -42 -4 -46 -4 -505 1 -354 4 -536 11 -573 21 -8 3 -32 7 -52 9 -21 3
-53 8 -70 11 -18 3 -41 7 -50 9 -10 1 -21 5 -24 9 -4 4 -16 7 -26 7 -17 0 -93
21 -138 37 -8 4 -19 7 -25 8 -24 6 -151 59 -159 66 -6 5 -18 9 -28 9 -10 0
-18 5 -18 10 0 6 -6 10 -12 10 -7 0 -33 10 -58 22 -25 12 -47 22 -50 22 -3 1
-41 23 -85 49 -114 68 -119 71 -125 77 -3 3 -21 17 -40 30 -103 72 -320 291
-368 373 -9 15 -20 27 -24 27 -4 0 -8 7 -8 15 0 9 -7 18 -15 21 -8 4 -15 11
-15 16 0 6 -17 38 -39 72 -21 34 -39 64 -40 68 -1 4 -19 45 -40 90 -80 175
-129 355 -147 538 -3 30 -9 82 -13 115 -9 62 -7 266 3 320 3 17 7 55 10 86 3
30 7 62 10 70 3 8 8 25 10 39 3 14 7 35 10 48 4 12 8 30 10 40 2 9 9 37 16 62
7 25 11 45 9 46 -2 0 1 7 8 15 6 8 14 26 17 39 11 57 111 275 170 370 35 56
99 153 106 160 3 3 18 22 33 42 63 85 209 236 292 303 28 22 52 42 55 45 3 3
21 17 40 30 19 13 37 27 40 31 11 14 220 135 294 169 96 45 224 95 269 106 4
1 8 2 10 4 1 1 9 3 17 5 8 1 53 12 100 23 122 30 167 37 290 47 35 3 65 7 66
8 4 4 228 -2 279 -7z"/>
</g>
</svg>
